# xmcd
#
# Track frame offsets:
#	150
#	19052
#	33865
#	49285
#	63465
#	79975
#	99735
#	112472
#	132252
#	143437
#	153940
#	167832
#
# Disc length: 2505 seconds
# Revision: 6
# Processed by: cddbd v1.5.2PL0 Copyright (c) Steve Scherf et al.
# Submitted via: dBpowerAMP V12.0
#
DISCID=a309c70c
DTITLE=k.d. lang and The Reclines - Absolute Torch And Twang [dBP-LITE-1-FLAC@]
DYEAR=1989
DGENRE=Pop
TTITLE0=Luck In My Eyes
TTITLE1=Three Days
TTITLE2=Trail of Broken Hearts
TTITLE3=Big Boned Gal
TTITLE4=Didn't I
TTITLE5=Wallflower Waltz
TTITLE6=Full Moon Full of Love
TTITLE7=Pullin' Back The Reins
TTITLE8=Big Big Love
TTITLE9=It's Me
TTITLE10=Walkin' in and out of Your Arms
TTITLE11=Nowhere to Stand
EXTD=
EXTT0=
EXTT1=
EXTT2=
EXTT3=
EXTT4=
EXTT5=
EXTT6=
EXTT7=
EXTT8=
EXTT9=
EXTT10=
EXTT11=
PLAYORDER=
